<svg version="1.2" xmlns="http://www.w3.org/2000/svg" viewBox="0 0 720 447" width="720" height="447"><defs><linearGradient id="P" gradientUnits="userSpaceOnUse"/><linearGradient id="g1" x2="1" href="#P" gradientTransform="matrix(719.607,0,0,446.988,0,223.494)"><stop stop-color="#081222" stop-opacity="0"/><stop offset="1" stop-color="#081222" stop-opacity="0"/></linearGradient></defs><style>.a{fill:#d0faff}.b{fill:#fff}.c{fill:url(#g1)}</style><path class="a" d="m112.5 179.8c1.2 8.4-4.8 16.3-13.4 17.5-8.6 1.3-16.6-4.5-17.8-13-1.2-8.4 4.7-16.3 13.4-17.5 8.6-1.3 16.5 4.5 17.8 13z"/><path class="a" d="m128.4 181.1c1.2 8.4-4.7 16.3-13.3 17.5-8.6 1.3-16.6-4.5-17.8-13-1.3-8.4 4.7-16.3 13.3-17.5 8.6-1.3 16.6 4.5 17.8 13z"/><path class="a" d="m125.9 170.2c1.2 8.5-4.7 16.3-13.3 17.6-8.6 1.2-16.6-4.6-17.8-13-1.3-8.4 4.7-16.3 13.3-17.6 8.6-1.2 16.6 4.6 17.8 13z"/><path class="a" d="m138 167.9c1.2 8.4-4.7 16.3-13.3 17.5-8.6 1.3-16.6-4.5-17.9-13-1.2-8.4 4.8-16.3 13.4-17.5 8.6-1.3 16.6 4.5 17.8 13z"/><path class="a" d="m143.6 158.8c1.3 8.5-4.7 16.3-13.3 17.6-8.6 1.3-16.6-4.6-17.8-13-1.2-8.4 4.7-16.3 13.3-17.6 8.6-1.2 16.6 4.6 17.8 13z"/><path class="a" d="m151.8 166.7c1.2 8.5-4.8 16.3-13.4 17.6-8.6 1.3-16.5-4.6-17.8-13-1.2-8.4 4.8-16.3 13.4-17.6 8.6-1.2 16.5 4.6 17.8 13z"/><path class="a" d="m150 181.3c1.2 8.4-4.8 16.3-13.4 17.5-8.6 1.3-16.6-4.5-17.8-13-1.2-8.4 4.7-16.3 13.3-17.5 8.6-1.3 16.6 4.5 17.9 13z"/><path class="a" d="m173.6 177.5c1.3 8.4-4.7 16.3-13.3 17.5-8.6 1.3-16.6-4.5-17.8-13-1.2-8.4 4.7-16.3 13.3-17.5 8.6-1.3 16.6 4.5 17.8 13z"/><path class="a" d="m159.6 164.4c1.2 8.4-4.7 16.3-13.3 17.5-8.6 1.3-16.6-4.5-17.8-13-1.3-8.4 4.7-16.3 13.3-17.5 8.6-1.3 16.6 4.5 17.8 13z"/><path class="b" d="m109.5 178.4c1.3 8.4-4.7 16.3-13.3 17.5-8.6 1.3-16.6-4.5-17.8-13-1.3-8.4 4.7-16.3 13.3-17.5 8.6-1.3 16.6 4.5 17.8 13z"/><path class="b" d="m125.5 179.7c1.2 8.4-4.8 16.3-13.4 17.5-8.6 1.3-16.5-4.5-17.8-13-1.2-8.4 4.8-16.3 13.4-17.5 8.6-1.3 16.5 4.5 17.8 13z"/><path class="b" d="m123 168.8c1.2 8.5-4.8 16.3-13.4 17.6-8.6 1.3-16.5-4.6-17.8-13-1.2-8.4 4.8-16.3 13.4-17.6 8.6-1.2 16.5 4.6 17.8 13z"/><path class="b" d="m135.1 166.5c1.2 8.4-4.8 16.3-13.4 17.5-8.6 1.3-16.6-4.5-17.8-13-1.2-8.4 4.7-16.3 13.3-17.5 8.6-1.3 16.6 4.5 17.9 13z"/><path class="b" d="m140.7 157.5c1.2 8.4-4.7 16.3-13.3 17.5-8.6 1.3-16.6-4.5-17.8-13-1.3-8.4 4.7-16.3 13.3-17.5 8.6-1.3 16.6 4.5 17.8 13z"/><path class="b" d="m148.8 165.4c1.3 8.4-4.7 16.3-13.3 17.5-8.6 1.3-16.6-4.5-17.8-13-1.2-8.4 4.7-16.3 13.3-17.5 8.6-1.3 16.6 4.5 17.8 13z"/><path class="b" d="m147 179.9c1.3 8.4-4.7 16.3-13.3 17.5-8.6 1.3-16.6-4.5-17.8-13-1.3-8.4 4.7-16.3 13.3-17.5 8.6-1.3 16.6 4.5 17.8 13z"/><path class="b" d="m170.7 176.1c1.2 8.4-4.7 16.3-13.3 17.6-8.6 1.2-16.6-4.6-17.8-13-1.3-8.5 4.7-16.3 13.3-17.6 8.6-1.3 16.6 4.6 17.8 13z"/><path class="b" d="m156.7 163c1.2 8.4-4.8 16.3-13.4 17.6-8.6 1.2-16.5-4.6-17.8-13-1.2-8.5 4.8-16.3 13.4-17.6 8.6-1.3 16.5 4.6 17.8 13z"/><path class="a" d="m218.8 132.5c0.8 5.1-2.8 9.8-8 10.6-5.2 0.7-10.1-2.8-10.8-7.9-0.8-5.1 2.8-9.8 8.1-10.6 5.2-0.8 10 2.7 10.7 7.9z"/><path class="a" d="m228.5 133.2c0.7 5.1-2.9 9.9-8.1 10.7-5.2 0.7-10-2.8-10.8-7.9-0.7-5.1 2.9-9.9 8.1-10.6 5.2-0.8 10 2.7 10.8 7.8z"/><path class="a" d="m227 126.7c0.7 5.1-2.9 9.8-8.1 10.6-5.2 0.8-10-2.8-10.8-7.9-0.7-5.1 2.9-9.8 8.1-10.6 5.2-0.7 10 2.8 10.8 7.9z"/><path class="a" d="m234.3 125.2c0.7 5.1-2.9 9.9-8.1 10.7-5.2 0.7-10-2.8-10.8-7.9-0.7-5.1 2.9-9.9 8.1-10.6 5.2-0.8 10 2.7 10.8 7.8z"/><path class="a" d="m237.7 119.8c0.7 5.1-2.9 9.9-8.1 10.6-5.2 0.8-10-2.7-10.8-7.8-0.7-5.2 2.9-9.9 8.1-10.7 5.2-0.7 10 2.8 10.8 7.9z"/><path class="a" d="m242.6 124.6c0.8 5.1-2.9 9.8-8.1 10.6-5.2 0.8-10-2.8-10.7-7.9-0.8-5.1 2.8-9.8 8-10.6 5.2-0.8 10.1 2.8 10.8 7.9z"/><path class="a" d="m241.5 133.3c0.8 5.2-2.9 9.9-8.1 10.7-5.2 0.7-10-2.8-10.7-7.9-0.8-5.1 2.8-9.9 8-10.6 5.2-0.8 10.1 2.7 10.8 7.8z"/><path class="a" d="m255.8 131.1c0.8 5.1-2.8 9.8-8 10.6-5.2 0.8-10.1-2.8-10.8-7.9-0.8-5.1 2.9-9.8 8.1-10.6 5.2-0.8 10 2.8 10.7 7.9z"/><path class="a" d="m247.3 123.1c0.8 5.1-2.8 9.9-8 10.7-5.2 0.7-10.1-2.8-10.8-7.9-0.7-5.1 2.9-9.9 8.1-10.6 5.2-0.8 10 2.7 10.7 7.8z"/><path class="b" d="m217.1 131.6c0.7 5.1-2.9 9.9-8.1 10.6-5.2 0.8-10-2.7-10.8-7.8-0.7-5.1 2.9-9.9 8.1-10.6 5.2-0.8 10 2.7 10.8 7.8z"/><path class="b" d="m226.7 132.4c0.8 5.1-2.9 9.9-8.1 10.6-5.2 0.8-10-2.7-10.7-7.8-0.8-5.1 2.8-9.9 8-10.7 5.2-0.7 10.1 2.8 10.8 7.9z"/><path class="b" d="m225.2 125.8c0.7 5.1-2.9 9.9-8.1 10.7-5.2 0.7-10-2.8-10.8-7.9-0.7-5.1 2.9-9.9 8.1-10.6 5.2-0.8 10 2.7 10.8 7.8z"/><path class="b" d="m232.5 124.4c0.7 5.1-2.9 9.9-8.1 10.6-5.2 0.8-10-2.7-10.7-7.8-0.8-5.1 2.8-9.9 8-10.7 5.2-0.7 10.1 2.8 10.8 7.9z"/><path class="b" d="m235.9 119c0.8 5.1-2.8 9.8-8.1 10.6-5.2 0.7-10-2.8-10.7-7.9-0.8-5.1 2.8-9.9 8-10.6 5.2-0.8 10.1 2.7 10.8 7.9z"/><path class="b" d="m240.8 123.7c0.8 5.1-2.8 9.9-8 10.7-5.2 0.7-10.1-2.8-10.8-7.9-0.8-5.1 2.9-9.9 8.1-10.6 5.2-0.8 10 2.7 10.7 7.8z"/><path class="b" d="m239.7 132.5c0.8 5.1-2.8 9.9-8 10.6-5.2 0.8-10.1-2.7-10.8-7.8-0.8-5.1 2.9-9.9 8.1-10.7 5.2-0.7 10 2.8 10.7 7.9z"/><path class="b" d="m254.1 130.2c0.7 5.1-2.9 9.9-8.1 10.7-5.2 0.7-10-2.8-10.8-7.9-0.7-5.1 2.9-9.9 8.1-10.6 5.2-0.8 10 2.7 10.8 7.8z"/><path class="b" d="m245.6 122.3c0.7 5.1-2.9 9.9-8.1 10.6-5.2 0.8-10-2.7-10.8-7.8-0.7-5.1 2.9-9.9 8.1-10.7 5.2-0.7 10 2.8 10.8 7.9z"/><path class="c" d="m0 447v-447h719.6v447z"/></svg>