<svg version="1.2" xmlns="http://www.w3.org/2000/svg" viewBox="0 0 712 446" width="712" height="446"><defs><linearGradient id="P" gradientUnits="userSpaceOnUse"/><linearGradient id="g1" x2="1" href="#P" gradientTransform="matrix(-6.503,148.668,-1075.189,-47.027,-462.792,385.172)"><stop stop-color="#032942"/><stop offset="1" stop-color="#081222"/></linearGradient><linearGradient id="g2" x2="1" href="#P" gradientTransform="matrix(714.862,0,0,451.803,-0.453,225.901)"><stop stop-color="#081222" stop-opacity="0"/><stop offset="1" stop-color="#081222" stop-opacity="0"/></linearGradient></defs><style>.a{fill:url(#g1)}.b{fill:url(#g2)}</style><path class="a" d="m-5 391.6c0 0 44 10.2 65.7 10 54.2-0.6 157.1-28.1 157.1-28.1 0 0 42 8.5 63.2 12.3 27.1 4.8 81.7 13.4 81.7 13.4 0 0 68.4-10.8 101.8-18.1 10.7-2.3 31.6-8.2 31.6-8.2 0 0 34.3 7.9 51.8 11.1 25.2 4.7 50.6 8.6 76.4 11.7 13.3 1.6 26.8 4.1 40.3 3.5 17.8-0.7 51.8-8.7 51.8-8.7l-0.2 59.8-721 0.8z"/><path class="b" d="m-0.5 451.8v-451.8h714.9v451.8z"/></svg>