<svg version="1.2" xmlns="http://www.w3.org/2000/svg" viewBox="0 0 712 445" width="712" height="445"><defs><linearGradient id="P" gradientUnits="userSpaceOnUse"/><linearGradient id="g1" x2="1" href="#P" gradientTransform="matrix(716.604,0,0,450.855,-1.696,225.427)"><stop stop-color="#081222" stop-opacity="0"/><stop offset="1" stop-color="#081222" stop-opacity="0"/></linearGradient></defs><style>.a{fill:#0e3a57}.b{fill:#102f43}.c{fill:url(#g1)}</style><path class="a" d="m-4.1 345.4l47.3-13.5c0 0 90.1 37 140.9 39.2 51.7 2.1 149.8-27.5 149.8-27.5l26.2-8.7c0 0 40.4 11.7 61.3 16.3 24.7 5.5 75.3 13.4 75.3 13.4 0 0 45.9-6.4 68.3-11.1 25.3-5.2 74.4-18.6 74.4-18.6l43.8 14 33.3 5.8-0.8 93h-720.3z"/><path class="b" d="m-4.6 447.7c0 0-3.2-99.8 0.1-101.6 14.4-7.7 48.3-14.3 48.3-14.3l46.9 72.8 41 20.7z"/><path class="b" d="m408.4 447.4c25.3-5.2 230.4-112 230.4-112l77.6 43.6-0.7 68.4c0 0-312.7 1.1-307.3 0z"/><path class="b" d="m361.1 335.9l65.3 43.6 111.3 19.3-76 49.1c0 0-127.2-0.7-245.7-0.1-45 0.2-88.7-0.2-123.8 0-49.3 0.3-81.4 0.9-75.8-1.6 87.1-38.2 344.7-110.3 344.7-110.3z"/><path class="a" d="m-4.1 314.8l47.3-13.4c0 0 90.1 37 140.9 39.1 51.7 2.2 149.8-27.4 149.8-27.4l26.2-8.8c0 0 40.4 11.8 61.3 16.4 24.7 5.5 75.3 13.4 75.3 13.4 0 0 45.9-6.5 68.3-11.1 25.3-5.2 74.4-18.7 74.4-18.7l43.8 14.1 33.3 5.8-0.8 93h-720.3z"/><path class="b" d="m-4.6 417.2c0 0-3.2-99.8 0.1-101.6 14.4-7.7 48.3-14.3 48.3-14.3l46.9 72.8 41 20.7z"/><path class="b" d="m638.8 304.8l76.7 43.7 0.2 70.3c0 0-312.7 2.1-307.3 0.9z"/><path class="b" d="m361.1 305.4l65.3 43.6 111.3 19.3-76 49.1c0 0-127.2-0.8-245.7-0.1-45 0.2-88.7-0.2-123.8 0-49.3 0.3-103 2.7-97.3 0.2 87.1-38.2 366.2-112.1 366.2-112.1z"/><path class="c" d="m-1.7 450.9v-450.9h716.6v450.9z"/></svg>