<svg version="1.2" xmlns="http://www.w3.org/2000/svg" viewBox="0 0 717 453" width="717" height="453"><defs><linearGradient id="P" gradientUnits="userSpaceOnUse"/><radialGradient id="g1" cx="0" cy="0" r="1" href="#P" gradientTransform="matrix(46.867,0,0,46.867,577.742,157.82)"><stop stop-color="#fed754" stop-opacity="1"/><stop offset="1" stop-color="#fed754" stop-opacity="0"/></radialGradient><linearGradient id="g2" x2="1" href="#P" gradientTransform="matrix(0,33.644,-34.373,0,212.392,88.058)"><stop stop-color="#fefff1"/><stop offset="1" stop-color="#ffe675"/></linearGradient><linearGradient id="g3" x2="1" href="#P" gradientTransform="matrix(716.604,0,0,452.415,0,226.208)"><stop stop-color="#081222" stop-opacity="0"/><stop offset="1" stop-color="#081222" stop-opacity="0"/></linearGradient></defs><style>.a{fill:url(#g1)}.b{fill:url(#g2)}.c{fill:url(#g3)}</style><path class="a" d="m638.5 157.8c0 33.6-27.2 60.9-60.8 60.9-33.5 0-60.7-27.3-60.7-60.9 0-33.6 27.2-60.8 60.7-60.8 33.6 0 60.8 27.2 60.8 60.8z"/><path class="b" d="m580 141.2c4.8 0 9.1 2 12.3 5 3.1 3.1 5.1 7.4 5.1 12.1 0 4.7-2 9-5.1 12.1-3.2 3.1-7.5 5-12.3 5-4.9 0-9.2-1.9-12.4-5-3.1-3.1-5.1-7.4-5.1-12.1 0-4.7 2-9 5.1-12.1 3.2-3 7.5-5 12.4-5z"/><path class="c" d="m0 452.4v-452.4h716.6v452.4z"/></svg>